<svg width="316" height="44" viewBox="0 0 316 44" fill="none" xmlns="http://www.w3.org/2000/svg">
<path d="M291.724 23.9883L281.246 20.4038L291.724 16.8193L302.202 20.4038L291.724 23.9883Z" fill="#2C2F33"/>
<path d="M23.7121 23.9883L13.2344 20.4038L23.7121 16.8193L34.1898 20.4038L23.7121 23.9883Z" fill="#2C2F33"/>
<path d="M314.332 21.2315H0.827193C0.275733 21.2315 0 20.9558 0 20.4043C0 19.8529 0.275733 19.5771 0.827193 19.5771H314.332C314.883 19.5771 315.159 19.8529 315.159 20.4043C315.159 20.9558 314.883 21.2315 314.332 21.2315Z" fill="#2C2F33"/>
<path d="M158.82 25.0912C158.82 25.0912 164.61 16.5436 170.952 18.198C170.952 18.198 167.367 14.0621 163.507 17.0951C160.198 19.8524 167.092 14.8893 158.82 9.65039C150.548 15.165 157.717 19.3009 154.132 17.0951C149.445 14.3378 146.688 18.198 146.688 18.198C154.132 17.6465 158.82 25.0912 158.82 25.0912Z" fill="#2C2F33"/>
<path d="M161.302 18.1981C161.302 18.1981 169.298 13.7865 163.232 7.16895C158.268 1.65435 158.82 0 158.82 0C158.82 0 158.82 2.48154 154.408 7.16895C148.066 13.7865 156.614 18.1981 156.614 18.1981H161.302Z" fill="#2C2F33"/>
<path d="M157.992 24.8153C156.889 23.9881 155.786 23.1609 154.407 22.6094C153.029 22.058 151.65 21.7822 150.271 21.7822C147.514 21.5065 144.757 22.058 142.275 23.4366C141.172 23.9881 140.069 24.8153 138.967 25.9182C137.864 27.0211 137.312 27.8483 136.761 29.2269C135.658 31.7085 135.658 34.4658 136.761 36.9474C137.312 38.0503 138.139 39.1532 139.242 39.9804C139.794 40.5319 140.345 40.8076 140.897 41.0833C141.448 41.3591 142 41.6348 142.827 41.6348C143.378 41.6348 144.205 41.6348 144.757 41.6348C145.308 41.6348 146.135 41.3591 146.687 41.0833C147.79 40.5319 148.893 39.7047 149.444 38.6018C149.996 37.4989 149.996 36.1202 149.72 35.0173C149.169 33.9144 148.341 32.8114 147.238 32.5357C146.135 32.26 144.757 32.5357 143.93 33.3629C143.102 34.1901 143.102 35.8445 143.93 36.3959C144.205 36.6717 144.205 36.9474 143.93 36.9474C143.93 37.2231 143.654 37.2231 143.378 37.2231C142.551 36.6717 142 35.8445 142 35.0173C142 34.1901 142.275 33.3629 142.827 32.5357C143.93 31.157 145.86 30.6056 147.514 30.8813C151.099 31.9842 152.477 36.1202 151.099 39.4289C149.444 42.462 146.135 44.3921 142.551 43.8406C141.724 43.8406 140.897 43.5649 140.069 43.2892C139.242 43.0134 138.691 42.462 137.864 41.9105C136.485 40.8076 135.658 39.4289 134.831 38.0503C133.452 35.0172 133.176 31.4328 134.555 28.3997C135.106 26.7454 136.209 25.3667 137.312 24.2638C138.415 23.1609 139.794 22.058 141.172 21.5065C143.93 20.1278 147.238 19.5764 150.547 19.8521C153.58 20.1279 156.613 21.7822 159.095 23.9881C159.371 24.2638 159.371 24.8153 159.095 25.091C158.819 25.091 158.268 25.091 157.992 24.8153Z" fill="#2C2F33"/>
<path d="M146.689 35.2927C146.689 36.3956 145.862 37.4986 144.483 37.4986C143.38 37.4986 142.277 36.6714 142.277 35.2927C142.277 34.1898 143.105 33.0869 144.483 33.0869C145.586 33.0869 146.689 34.1898 146.689 35.2927Z" fill="#2C2F33"/>
<path d="M158.268 23.7119C160.474 21.506 163.507 20.1274 166.816 19.5759C169.849 19.0245 173.157 19.576 176.19 21.2303C177.569 22.0575 178.948 22.8847 180.051 23.9876C181.153 25.0905 182.256 26.4692 182.808 28.1236C184.187 31.1566 183.911 34.7411 182.532 37.7741C181.705 39.1528 180.878 40.5314 179.499 41.6343C178.948 42.1858 178.12 42.7372 177.293 43.013C176.466 43.2887 175.639 43.5644 174.812 43.5644C171.503 43.8401 167.918 42.1858 166.264 39.1528C164.61 36.1197 166.264 31.708 169.849 30.6051C171.503 30.0537 173.433 30.8809 174.536 32.2595C175.087 33.0867 175.363 33.9139 175.363 34.7411C175.363 35.5683 174.812 36.6712 173.985 36.9469C173.709 36.9469 173.433 36.9469 173.433 36.6712C173.433 36.3954 173.433 36.1197 173.709 36.1197C174.812 35.5683 174.536 33.9139 173.709 33.0867C172.882 32.2595 171.503 31.7081 170.4 32.2595C169.297 32.5353 168.47 33.6382 167.918 34.7411C167.367 35.844 167.643 37.2227 168.194 38.3256C168.746 39.4285 169.849 40.2557 170.951 40.8071C171.503 41.0829 172.054 41.3586 172.882 41.3586C173.433 41.3586 174.26 41.3586 174.812 41.3586C175.363 41.3586 176.19 41.0829 176.742 40.8071C177.293 40.5314 177.845 40.2557 178.396 39.7042C179.499 38.877 180.326 37.7741 180.878 36.6712C181.981 34.1896 181.981 31.4323 180.878 28.9508C180.326 27.8479 179.499 26.7449 178.672 25.642C177.845 24.8148 176.742 23.9876 175.363 23.1604C172.882 21.7818 170.124 21.2303 167.367 21.506C165.988 21.506 164.61 22.0575 163.231 22.3332C161.852 22.8847 160.749 23.4362 159.647 24.5391C159.371 24.8148 158.819 24.8148 158.544 24.2633C157.716 24.5391 157.992 23.9876 158.268 23.7119Z" fill="#2C2F33"/>
<path d="M170.676 35.2927C170.676 36.3956 171.503 37.4986 172.882 37.4986C173.985 37.4986 175.087 36.6714 175.087 35.2927C175.087 34.1898 174.26 33.0869 172.882 33.0869C171.503 33.0869 170.676 34.1898 170.676 35.2927Z" fill="#2C2F33"/>
</svg>
