<svg width="317" height="44" viewBox="0 0 317 44" fill="none" xmlns="http://www.w3.org/2000/svg">
<path d="M292.646 24.0528L282.168 20.4683L292.646 16.8838L303.123 20.4683L292.646 24.0528Z" fill="white"/>
<path d="M24.634 24.0528L14.1562 20.4683L24.634 16.8838L35.1117 20.4683L24.634 24.0528Z" fill="white"/>
<path d="M315.254 21.296H1.74907C1.19761 21.296 0.921875 21.0203 0.921875 20.4688C0.921875 19.9173 1.19761 19.6416 1.74907 19.6416H315.254C315.805 19.6416 316.081 19.9173 316.081 20.4688C316.081 21.0203 315.805 21.296 315.254 21.296Z" fill="white"/>
<path d="M159.741 25.1557C159.741 25.1557 165.532 16.6081 171.874 18.2624C171.874 18.2624 168.289 14.1265 164.429 17.1595C161.12 19.9168 168.013 14.9537 159.741 9.71484C151.47 15.2294 158.639 19.3654 155.054 17.1595C150.367 14.4022 147.609 18.2624 147.609 18.2624C155.054 17.711 159.741 25.1557 159.741 25.1557Z" fill="white"/>
<path d="M162.223 18.2626C162.223 18.2626 170.22 13.8509 164.153 7.2334C159.19 1.71881 159.742 0.0644531 159.742 0.0644531C159.742 0.0644531 159.742 2.546 155.33 7.2334C148.988 13.8509 157.536 18.2626 157.536 18.2626H162.223Z" fill="white"/>
<path d="M158.914 24.8797C157.811 24.0525 156.708 23.2253 155.329 22.6739C153.951 22.1224 152.572 21.8467 151.193 21.8467C148.436 21.571 145.679 22.1224 143.197 23.5011C142.094 24.0525 140.991 24.8797 139.888 25.9826C138.785 27.0856 138.234 27.9127 137.683 29.2914C136.58 31.773 136.58 34.5303 137.683 37.0118C138.234 38.1147 139.061 39.2177 140.164 40.0449C140.716 40.5963 141.267 40.872 141.818 41.1478C142.37 41.4235 142.921 41.6992 143.749 41.6992C144.3 41.6992 145.127 41.6992 145.679 41.6992C146.23 41.6992 147.057 41.4235 147.609 41.1478C148.712 40.5963 149.815 39.7691 150.366 38.6662C150.918 37.5633 150.918 36.1846 150.642 35.0817C150.09 33.9788 149.263 32.8759 148.16 32.6001C147.057 32.3244 145.679 32.6001 144.852 33.4273C144.024 34.2545 144.024 35.9089 144.852 36.4604C145.127 36.7361 145.127 37.0118 144.852 37.0118C144.852 37.2876 144.576 37.2876 144.3 37.2876C143.473 36.7361 142.921 35.9089 142.921 35.0817C142.921 34.2545 143.197 33.4273 143.749 32.6001C144.852 31.2215 146.782 30.6701 148.436 30.9458C152.02 32.0487 153.399 36.1846 152.02 39.4934C150.366 42.5264 147.057 44.4565 143.473 43.9051C142.646 43.9051 141.818 43.6294 140.991 43.3536C140.164 43.0779 139.613 42.5264 138.785 41.975C137.407 40.8721 136.58 39.4934 135.752 38.1147C134.374 35.0817 134.098 31.4972 135.477 28.4642C136.028 26.8098 137.131 25.4312 138.234 24.3282C139.337 23.2253 140.716 22.1224 142.094 21.5709C144.852 20.1923 148.16 19.6409 151.469 19.9166C154.502 20.1923 157.535 21.8467 160.017 24.0525C160.292 24.3283 160.292 24.8797 160.017 25.1554C159.741 25.1554 159.189 25.1555 158.914 24.8797Z" fill="white"/>
<path d="M147.611 35.3572C147.611 36.4601 146.784 37.563 145.405 37.563C144.302 37.563 143.199 36.7358 143.199 35.3572C143.199 34.2543 144.026 33.1514 145.405 33.1514C146.508 33.1514 147.611 34.2543 147.611 35.3572Z" fill="white"/>
<path d="M159.19 23.7763C161.396 21.5705 164.429 20.1918 167.737 19.6404C170.77 19.0889 174.079 19.6404 177.112 21.2948C178.491 22.122 179.87 22.9492 180.972 24.0521C182.075 25.155 183.178 26.5337 183.73 28.188C185.108 31.2211 184.833 34.8055 183.454 37.8386C182.627 39.2172 181.8 40.5959 180.421 41.6988C179.87 42.2502 179.042 42.8017 178.215 43.0774C177.388 43.3532 176.561 43.6289 175.734 43.6289C172.425 43.9046 168.84 42.2502 167.186 39.2172C165.532 36.1842 167.186 31.7725 170.77 30.6696C172.425 30.1181 174.355 30.9453 175.458 32.324C176.009 33.1512 176.285 33.9783 176.285 34.8055C176.285 35.6327 175.734 36.7356 174.906 37.0114C174.631 37.0114 174.355 37.0114 174.355 36.7356C174.355 36.4599 174.355 36.1842 174.631 36.1842C175.734 35.6327 175.458 33.9784 174.631 33.1512C173.803 32.324 172.425 31.7725 171.322 32.324C170.219 32.5997 169.392 33.7026 168.84 34.8055C168.289 35.9084 168.565 37.2871 169.116 38.39C169.668 39.4929 170.77 40.3201 171.873 40.8716C172.425 41.1473 172.976 41.4231 173.803 41.4231C174.355 41.4231 175.182 41.4231 175.734 41.4231C176.285 41.4231 177.112 41.1473 177.664 40.8716C178.215 40.5958 178.767 40.3201 179.318 39.7687C180.421 38.9415 181.248 37.8385 181.8 36.7356C182.903 34.2541 182.903 31.4968 181.8 29.0152C181.248 27.9123 180.421 26.8094 179.594 25.7064C178.767 24.8792 177.664 24.0521 176.285 23.2249C173.803 21.8462 171.046 21.2948 168.289 21.5705C166.91 21.5705 165.532 22.122 164.153 22.3977C162.774 22.9491 161.671 23.5006 160.568 24.6035C160.293 24.8793 159.741 24.8792 159.466 24.3278C158.638 24.6035 158.914 24.0521 159.19 23.7763Z" fill="white"/>
<path d="M171.598 35.3572C171.598 36.4601 172.425 37.563 173.803 37.563C174.906 37.563 176.009 36.7358 176.009 35.3572C176.009 34.2543 175.182 33.1514 173.803 33.1514C172.425 33.1514 171.598 34.2543 171.598 35.3572Z" fill="white"/>
</svg>
