<svg width="63" height="63" viewBox="0 0 63 63" fill="none" xmlns="http://www.w3.org/2000/svg">
<g opacity="0.2" clip-path="url(#clip0_115_748)">
<path d="M31.5 63C48.8683 63 63 48.8683 63 31.5C63 14.1317 48.8683 0 31.5 0C14.1317 0 0 14.1317 0 31.5C0 48.8683 14.1317 63 31.5 63ZM31.5 1.96875C47.7835 1.96875 61.0312 15.2165 61.0312 31.5C61.0312 47.7835 47.7835 61.0312 31.5 61.0312C15.2165 61.0312 1.96875 47.7835 1.96875 31.5C1.96875 15.2165 15.2165 1.96875 31.5 1.96875Z" fill="white"/>
<path d="M21.1343 26.8662C22.1325 27.1911 23.17 27.0415 24.1485 26.4292C24.3625 26.2874 24.5127 26.0675 24.567 25.8165C24.6212 25.5655 24.5753 25.3033 24.4389 25.0857C24.3025 24.8681 24.0864 24.7124 23.8369 24.6519C23.5873 24.5914 23.324 24.6308 23.1031 24.7617C22.6286 25.057 22.1718 25.1318 21.7486 24.9959C21.2977 24.8483 20.8725 24.4683 20.5161 23.8974C20.3579 23.6477 20.2508 23.3692 20.201 23.0778C20.1512 22.7865 20.1597 22.4882 20.226 22.2002C20.2923 21.9122 20.415 21.6401 20.5872 21.3999C20.7593 21.1596 20.9774 20.9559 21.2288 20.8005C22.4455 20.0327 24.0284 20.4717 25.0541 21.2415C26.7886 22.5389 27.5642 24.7951 27.5642 28.5476C27.5642 34.0876 25.0442 40.9763 20.2267 43.4195C20.1051 43.4744 19.9958 43.5533 19.9056 43.6516C19.8154 43.7499 19.746 43.8655 19.7018 43.9914C19.6575 44.1173 19.6392 44.2509 19.6481 44.384C19.6569 44.5171 19.6927 44.6471 19.7532 44.766C19.8137 44.8849 19.8978 44.9903 20.0002 45.0759C20.1027 45.1614 20.2214 45.2252 20.3492 45.2635C20.477 45.3018 20.6113 45.3137 20.7439 45.2986C20.8765 45.2835 21.0046 45.2417 21.1205 45.1756C26.8988 42.2442 29.533 34.4991 29.533 28.5476C29.533 24.173 28.4856 21.3518 26.2353 19.6646C24.3611 18.253 21.9277 18.0423 20.1854 19.131C19.7148 19.4233 19.3069 19.8061 18.9855 20.2573C18.6641 20.7085 18.4355 21.219 18.3131 21.7593C18.1869 22.2985 18.1691 22.8574 18.2607 23.4036C18.3523 23.9497 18.5515 24.4723 18.8466 24.9408C19.451 25.9055 20.2405 26.5709 21.1343 26.8662ZM36.8843 26.8662C37.8805 27.1911 38.92 27.0415 39.8985 26.4292C40.1125 26.2874 40.2627 26.0675 40.317 25.8165C40.3712 25.5655 40.3253 25.3033 40.1889 25.0857C40.0525 24.8681 39.8364 24.7124 39.5869 24.6519C39.3373 24.5914 39.074 24.6308 38.8531 24.7617C38.3806 25.057 37.9218 25.1318 37.4986 24.9959C37.0477 24.8483 36.6225 24.4683 36.2661 23.8974C36.1079 23.6477 36.0008 23.3692 35.951 23.0778C35.9012 22.7865 35.9097 22.4882 35.976 22.2002C36.0423 21.9122 36.165 21.6401 36.3372 21.3999C36.5093 21.1596 36.7274 20.9559 36.9788 20.8005C38.1975 20.0327 39.7803 20.4717 40.8041 21.2415C42.5386 22.5389 43.3143 24.7951 43.3143 28.5476C43.3143 34.0876 40.7943 40.9763 35.9767 43.4195C35.8551 43.4744 35.7458 43.5533 35.6556 43.6516C35.5654 43.7499 35.496 43.8655 35.4518 43.9914C35.4075 44.1173 35.3892 44.2509 35.3981 44.384C35.4069 44.5171 35.4427 44.6471 35.5032 44.766C35.5637 44.8849 35.6478 44.9903 35.7502 45.0759C35.8527 45.1614 35.9714 45.2252 36.0992 45.2635C36.227 45.3018 36.3613 45.3137 36.4939 45.2986C36.6265 45.2835 36.7546 45.2417 36.8705 45.1756C42.6488 42.2442 45.283 34.4991 45.283 28.5476C45.283 24.173 44.2356 21.3518 41.9853 19.6646C40.1111 18.253 37.6777 18.0423 35.9354 19.131C35.4648 19.4233 35.0569 19.8061 34.7355 20.2573C34.4141 20.7085 34.1855 21.219 34.0631 21.7593C33.9369 22.2985 33.9191 22.8574 34.0107 23.4036C34.1023 23.9497 34.3015 24.4723 34.5966 24.9408C35.201 25.9055 35.9905 26.5709 36.8843 26.8662Z" fill="white"/>
</g>
<defs>
<clipPath id="clip0_115_748">
<rect width="63" height="63" fill="white"/>
</clipPath>
</defs>
</svg>
