<svg width="15" height="24" viewBox="0 0 15 24" fill="none" xmlns="http://www.w3.org/2000/svg">
<path d="M14.4326 11.2619L1.22559 0.946518C1.19108 0.919348 1.1496 0.902464 1.10593 0.897803C1.06226 0.893142 1.01815 0.900894 0.978686 0.920168C0.939219 0.939443 0.905989 0.969459 0.882812 1.00677C0.859635 1.04408 0.847451 1.08717 0.847659 1.13109V3.39574C0.847659 3.53929 0.915042 3.67699 1.02637 3.76488L11.5732 12.0002L1.02637 20.2356C0.912112 20.3235 0.847659 20.4612 0.847659 20.6047V22.8694C0.847659 23.0657 1.07324 23.1741 1.22559 23.0539L14.4326 12.7385C14.5449 12.6509 14.6357 12.5389 14.6981 12.411C14.7606 12.2831 14.7931 12.1426 14.7931 12.0002C14.7931 11.8579 14.7606 11.7174 14.6981 11.5894C14.6357 11.4615 14.5449 11.3495 14.4326 11.2619Z" fill="#252525"/>
</svg>
