<svg width="16" height="17" viewBox="0 0 16 17" fill="none" xmlns="http://www.w3.org/2000/svg">
<path d="M2 1.84961H4C4.18667 1.84961 4.35333 1.92294 4.47333 2.04294L5.86 3.43628L6.39333 2.90961C6.66667 2.64961 7 2.51628 7.33333 2.51628H11.3333C11.6667 2.51628 12 2.64961 12.2733 2.90961L12.94 3.57628C13.2 3.84961 13.3333 4.18294 13.3333 4.51628V13.1829C13.3333 13.5366 13.1929 13.8757 12.9428 14.1258C12.6928 14.3758 12.3536 14.5163 12 14.5163H5.33333C4.97971 14.5163 4.64057 14.3758 4.39052 14.1258C4.14048 13.8757 4 13.5366 4 13.1829V5.84961C4 5.51628 4.13333 5.18294 4.39333 4.90961L4.92 4.37628L3.72667 3.18294H2V1.84961ZM7.33333 3.84961V5.18294H11.3333V3.84961H7.33333ZM7.60667 7.84961L6.27333 6.51628H5.33333V7.45628L6.66667 8.78961V10.9096L5.33333 12.2429V13.1829H6.27333L7.60667 11.8496H9.72667L11.06 13.1829H12V12.2429L10.6667 10.9096V8.78961L12 7.45628V6.51628H11.06L9.72667 7.84961H7.60667ZM8 9.18294H9.33333V10.5163H8V9.18294Z" fill="white"/>
</svg>
