<svg width="31" height="31" viewBox="0 0 31 31" fill="none" xmlns="http://www.w3.org/2000/svg">
<path d="M22.9326 14.7617L9.72559 4.44629C9.69108 4.41912 9.6496 4.40223 9.60593 4.39757C9.56226 4.39291 9.51815 4.40067 9.47869 4.41994C9.43922 4.43921 9.40599 4.46923 9.38281 4.50654C9.35963 4.54385 9.34745 4.58694 9.34766 4.63086V6.89551C9.34766 7.03906 9.41504 7.17676 9.52637 7.26465L20.0732 15.5L9.52637 23.7353C9.41211 23.8232 9.34766 23.9609 9.34766 24.1045V26.3691C9.34766 26.5654 9.57324 26.6738 9.72559 26.5537L22.9326 16.2383C23.0449 16.1507 23.1357 16.0387 23.1981 15.9108C23.2606 15.7829 23.2931 15.6424 23.2931 15.5C23.2931 15.3576 23.2606 15.2171 23.1981 15.0892C23.1357 14.9613 23.0449 14.8493 22.9326 14.7617Z" fill="white"/>
</svg>
