<svg width="16" height="17" viewBox="0 0 16 17" fill="none" xmlns="http://www.w3.org/2000/svg">
<path d="M5.86615 7.98203C5.1589 7.98203 4.48062 7.70108 3.98053 7.20098C3.48043 6.70089 3.19948 6.02261 3.19948 5.31536V3.18203C3.19948 3.04058 3.25567 2.90493 3.35569 2.80491C3.45571 2.70489 3.59136 2.6487 3.73281 2.6487H4.26615C4.40759 2.6487 4.54325 2.59251 4.64327 2.49249C4.74329 2.39247 4.79948 2.25681 4.79948 2.11536C4.79948 1.97392 4.74329 1.83826 4.64327 1.73824C4.54325 1.63822 4.40759 1.58203 4.26615 1.58203H3.73281C3.30847 1.58203 2.9015 1.7506 2.60144 2.05066C2.30138 2.35072 2.13281 2.75768 2.13281 3.18203V5.31536C2.1335 5.91789 2.28042 6.51125 2.56097 7.04447C2.84152 7.5777 3.24731 8.03486 3.74348 8.3767C4.22019 8.79698 4.60679 9.3095 4.87995 9.88332C5.15311 10.4571 5.30717 11.0804 5.33281 11.7154C5.33281 12.7055 5.72615 13.6551 6.42628 14.3552C7.12642 15.0554 8.076 15.4487 9.06615 15.4487C10.0563 15.4487 11.0059 15.0554 11.706 14.3552C12.4061 13.6551 12.7995 12.7055 12.7995 11.7154V11.1074C13.3022 10.9776 13.7404 10.6688 14.0318 10.2391C14.3232 9.80935 14.4479 9.28807 14.3825 8.77296C14.317 8.25786 14.066 7.78431 13.6764 7.44106C13.2868 7.09781 12.7854 6.90844 12.2661 6.90844C11.7469 6.90844 11.2455 7.09781 10.8559 7.44106C10.4663 7.78431 10.2152 8.25786 10.1498 8.77296C10.0844 9.28807 10.2091 9.80935 10.5005 10.2391C10.7919 10.6688 11.2301 10.9776 11.7328 11.1074V11.7154C11.7328 12.4226 11.4519 13.1009 10.9518 13.601C10.4517 14.1011 9.77339 14.382 9.06615 14.382C8.3589 14.382 7.68062 14.1011 7.18053 13.601C6.68043 13.1009 6.39948 12.4226 6.39948 11.7154C6.42648 11.0796 6.5822 10.4559 6.85721 9.88201C7.13223 9.30814 7.52082 8.79604 7.99948 8.3767C8.49368 8.03368 8.89739 7.576 9.17604 7.04284C9.45469 6.50969 9.59999 5.91695 9.59948 5.31536V3.18203C9.59948 2.75768 9.43091 2.35072 9.13085 2.05066C8.83079 1.7506 8.42383 1.58203 7.99948 1.58203H7.46615C7.3247 1.58203 7.18904 1.63822 7.08902 1.73824C6.989 1.83826 6.93281 1.97392 6.93281 2.11536C6.93281 2.25681 6.989 2.39247 7.08902 2.49249C7.18904 2.59251 7.3247 2.6487 7.46615 2.6487H7.99948C8.14093 2.6487 8.27658 2.70489 8.3766 2.80491C8.47662 2.90493 8.53281 3.04058 8.53281 3.18203V5.31536C8.53281 5.66556 8.46384 6.01232 8.32982 6.33585C8.19581 6.65939 7.99939 6.95336 7.75176 7.20098C7.50414 7.44861 7.21017 7.64503 6.88664 7.77904C6.5631 7.91306 6.21634 7.98203 5.86615 7.98203ZM12.2661 10.1154C11.9832 10.1154 11.7119 10.003 11.5119 9.80295C11.3119 9.60291 11.1995 9.3316 11.1995 9.0487C11.1995 8.7658 11.3119 8.49449 11.5119 8.29445C11.7119 8.09441 11.9832 7.98203 12.2661 7.98203C12.549 7.98203 12.8204 8.09441 13.0204 8.29445C13.2204 8.49449 13.3328 8.7658 13.3328 9.0487C13.3328 9.3316 13.2204 9.60291 13.0204 9.80295C12.8204 10.003 12.549 10.1154 12.2661 10.1154Z" fill="white"/>
</svg>
