<svg width="31" height="24" viewBox="0 0 31 24" fill="none" xmlns="http://www.w3.org/2000/svg">
<g clip-path="url(#clip0_115_800)">
<path d="M7.04548 23.57V11.5926L3.33093 8.19439L0 6.30859V21.4563C0 22.6259 0.947559 23.57 2.11369 23.57H7.04548Z" fill="#4285F4"/>
<path d="M23.9531 23.5699H28.8849C30.0546 23.5699 30.9986 22.6222 30.9986 21.4562V6.30859L27.2258 8.46854L23.9531 11.5925V23.5699Z" fill="#34A853"/>
<path d="M7.04451 11.5926L6.53906 6.91273L7.04451 2.43359L15.499 8.77455L23.9536 2.43359L24.5189 6.67091L23.9536 11.5926L15.499 17.9336L7.04451 11.5926Z" fill="#EA4335"/>
<path d="M23.9531 2.43404V11.5931L30.9986 6.30904V3.49083C30.9986 0.877017 28.0149 -0.613041 25.926 0.954517L23.9531 2.43404Z" fill="#FBBC04"/>
<path d="M0 6.3091L3.24035 8.73945L7.04548 11.5931V2.4341L5.07262 0.954573C2.98012 -0.613107 0 0.877073 0 3.49076V6.3091Z" fill="#C5221F"/>
</g>
<defs>
<clipPath id="clip0_115_800">
<rect width="31" height="23.3711" fill="white" transform="translate(0 0.314453)"/>
</clipPath>
</defs>
</svg>
