<svg width="24" height="25" viewBox="0 0 24 25" fill="none" xmlns="http://www.w3.org/2000/svg">
<path d="M9.00015 16.6864L5.53015 13.2164C5.34317 13.0295 5.08957 12.9244 4.82515 12.9244C4.56072 12.9244 4.30712 13.0295 4.12015 13.2164C3.93317 13.4034 3.82813 13.657 3.82812 13.9214C3.82813 14.0524 3.85391 14.182 3.90402 14.303C3.95412 14.4239 4.02756 14.5339 4.12015 14.6264L8.30015 18.8064C8.69015 19.1964 9.32015 19.1964 9.71015 18.8064L20.2901 8.22643C20.4771 8.03946 20.5822 7.78586 20.5822 7.52143C20.5822 7.25701 20.4771 7.00341 20.2901 6.81643C20.1032 6.62946 19.8496 6.52441 19.5851 6.52441C19.3207 6.52441 19.0671 6.62946 18.8801 6.81643L9.00015 16.6864Z" fill="white"/>
</svg>
