<svg width="15" height="16" viewBox="0 0 15 16" fill="none" xmlns="http://www.w3.org/2000/svg">
<g clip-path="url(#clip0_115_655)">
<path d="M12.878 4.41641H11.4008V2.84861C11.4008 1.72781 10.5164 0.816406 9.39258 0.816406H5.60928C4.48488 0.816406 3.60078 1.72781 3.60078 2.84861V4.41641H2.12328C1.11648 4.41641 0.300781 5.19371 0.300781 6.19751V13.0996C0.300781 14.1031 1.11648 14.9164 2.12328 14.9164H12.878C13.8845 14.9164 14.7008 14.1031 14.7008 13.0993V6.19751C14.7008 5.19371 13.8845 4.41641 12.878 4.41641ZM4.80078 2.84861C4.80078 2.42891 5.18838 2.01641 5.60928 2.01641H9.39258C9.81228 2.01641 10.2008 2.42891 10.2008 2.84861V4.41641H4.80078V2.84861ZM10.8008 11.0164H8.70078V13.1164H6.30078V11.0164H4.20078V8.61641H6.30078V6.51641H8.70078V8.61641H10.8008V11.0164Z" fill="white"/>
</g>
<defs>
<clipPath id="clip0_115_655">
<rect width="15" height="15" fill="white" transform="translate(0 0.515625)"/>
</clipPath>
</defs>
</svg>
