<svg width="79" height="54" viewBox="0 0 79 54" fill="none" xmlns="http://www.w3.org/2000/svg">
<g clip-path="url(#clip0_200_7)">
<path d="M27.0592 53.3013V51.1568H27.2679V52.403L28.4505 51.1538H28.6834L27.8063 52.0975L28.7318 53.3013H28.4989L27.6762 52.2215L27.2679 52.6419V53.3013H27.0592ZM29.865 53.1259C30.0001 53.1259 30.112 53.1007 30.2007 53.0503C30.2914 52.9978 30.363 52.9303 30.4154 52.8476C30.4699 52.7629 30.5072 52.6671 30.5274 52.5603C30.5495 52.4534 30.5606 52.3455 30.5606 52.2366V51.1538H30.7724V52.2366C30.7724 52.3818 30.7562 52.5199 30.724 52.651C30.6917 52.7801 30.6393 52.894 30.5667 52.9928C30.4961 53.0916 30.4033 53.1702 30.2884 53.2287C30.1735 53.2872 30.0333 53.3164 29.868 53.3164C29.6966 53.3164 29.5534 53.2862 29.4385 53.2257C29.3235 53.1632 29.2308 53.0815 29.1602 52.9807C29.0896 52.8799 29.0392 52.7649 29.009 52.6359C28.9787 52.5068 28.9636 52.3737 28.9636 52.2366V51.1538H29.1723V52.2366C29.1723 52.3495 29.1834 52.4594 29.2056 52.5663C29.2278 52.6732 29.2651 52.768 29.3175 52.8506C29.3719 52.9333 29.4435 52.9998 29.5322 53.0503C29.621 53.1007 29.7319 53.1259 29.865 53.1259ZM32.1754 50.8604L32.0393 50.809L32.2178 50.5277H32.4356L32.1754 50.8604ZM31.141 52.2124C31.141 52.0834 31.1632 51.9553 31.2075 51.8283C31.2539 51.6992 31.3205 51.5843 31.4072 51.4835C31.4939 51.3827 31.6008 51.301 31.7278 51.2385C31.8548 51.174 31.999 51.1417 32.1603 51.1417C32.3519 51.1417 32.5152 51.185 32.6503 51.2718C32.7854 51.3585 32.8862 51.4714 32.9528 51.6105L32.7834 51.7134C32.7491 51.6428 32.7078 51.5833 32.6594 51.5349C32.611 51.4865 32.5586 51.4472 32.5021 51.4169C32.4456 51.3867 32.3872 51.3655 32.3267 51.3534C32.2662 51.3393 32.2067 51.3322 32.1482 51.3322C32.0192 51.3322 31.9052 51.3585 31.8064 51.4109C31.7076 51.4633 31.6239 51.5319 31.5554 51.6166C31.4888 51.7013 31.4384 51.797 31.4042 51.9039C31.3699 52.0088 31.3527 52.1156 31.3527 52.2245C31.3527 52.3435 31.3729 52.4574 31.4132 52.5663C31.4556 52.6752 31.512 52.772 31.5826 52.8567C31.6552 52.9393 31.7399 53.0059 31.8367 53.0563C31.9355 53.1047 32.0424 53.1289 32.1573 53.1289C32.2178 53.1289 32.2793 53.1218 32.3418 53.1077C32.4063 53.0916 32.4678 53.0674 32.5263 53.0351C32.5868 53.0009 32.6422 52.9595 32.6927 52.9111C32.7431 52.8607 32.7854 52.8002 32.8197 52.7296L32.9951 52.8204C32.9608 52.901 32.9124 52.9726 32.8499 53.0351C32.7874 53.0956 32.7179 53.147 32.6412 53.1894C32.5646 53.2317 32.4829 53.264 32.3962 53.2862C32.3115 53.3084 32.2279 53.3194 32.1452 53.3194C31.998 53.3194 31.8629 53.2872 31.7399 53.2227C31.6169 53.1581 31.511 53.0745 31.4223 52.9716C31.3336 52.8668 31.264 52.7488 31.2136 52.6177C31.1652 52.4846 31.141 52.3495 31.141 52.2124ZM33.1387 53.3013L34.037 51.1538H34.2094L35.1077 53.3013H34.8809L34.6026 52.6298H33.6377L33.3625 53.3013H33.1387ZM34.1247 51.4018L33.6831 52.4635H34.5542L34.1247 51.4018ZM35.9102 53.1349L37.3711 51.3413H35.9344V51.1538H37.6161V51.3201L36.1734 53.1138H37.6131V53.3013H35.9102V53.1349ZM37.7583 53.3013L38.6567 51.1538H38.8291L39.7274 53.3013H39.5005L39.2223 52.6298H38.2574L37.9822 53.3013H37.7583ZM38.7444 51.4018L38.3028 52.4635H39.1739L38.7444 51.4018ZM41.5885 53.3164C41.4393 53.3164 41.3022 53.2862 41.1772 53.2257C41.0542 53.1632 40.9483 53.0815 40.8596 52.9807C40.7709 52.8778 40.7023 52.7609 40.6539 52.6298C40.6055 52.4988 40.5813 52.3647 40.5813 52.2275C40.5813 52.0844 40.6065 51.9473 40.6569 51.8162C40.7094 51.6851 40.7809 51.5692 40.8717 51.4684C40.9624 51.3675 41.0693 51.2879 41.1923 51.2294C41.3153 51.1689 41.4484 51.1387 41.5916 51.1387C41.7408 51.1387 41.8769 51.1709 41.9999 51.2355C42.1249 51.298 42.2308 51.3806 42.3175 51.4835C42.4062 51.5863 42.4748 51.7033 42.5231 51.8343C42.5715 51.9634 42.5957 52.0955 42.5957 52.2306C42.5957 52.3737 42.5695 52.5109 42.5171 52.6419C42.4667 52.773 42.3961 52.8889 42.3054 52.9898C42.2166 53.0886 42.1108 53.1682 41.9878 53.2287C41.8648 53.2872 41.7317 53.3164 41.5885 53.3164ZM40.793 52.2275C40.793 52.3445 40.8122 52.4574 40.8505 52.5663C40.8888 52.6732 40.9433 52.769 41.0138 52.8537C41.0844 52.9363 41.1681 53.0029 41.2649 53.0533C41.3617 53.1017 41.4696 53.1259 41.5885 53.1259C41.7095 53.1259 41.8194 53.0997 41.9182 53.0472C42.017 52.9948 42.1007 52.9262 42.1693 52.8416C42.2378 52.7569 42.2902 52.6611 42.3265 52.5542C42.3649 52.4473 42.384 52.3385 42.384 52.2275C42.384 52.1106 42.3638 51.9987 42.3235 51.8918C42.2852 51.7829 42.2308 51.6871 42.1602 51.6045C42.0896 51.5218 42.0059 51.4563 41.9091 51.4079C41.8124 51.3575 41.7055 51.3322 41.5885 51.3322C41.4675 51.3322 41.3576 51.3585 41.2588 51.4109C41.16 51.4613 41.0764 51.5289 41.0078 51.6135C40.9392 51.6982 40.8858 51.794 40.8475 51.9009C40.8112 52.0078 40.793 52.1166 40.793 52.2275ZM43.0036 53.3013V51.1538H43.7296C43.901 51.1538 44.0512 51.182 44.1802 51.2385C44.3093 51.2949 44.4162 51.3716 44.5008 51.4684C44.5876 51.5651 44.6521 51.6791 44.6944 51.8101C44.7368 51.9392 44.7579 52.0773 44.7579 52.2245C44.7579 52.3879 44.7337 52.5361 44.6854 52.6691C44.637 52.8002 44.5684 52.9131 44.4797 53.0079C44.391 53.1007 44.2831 53.1733 44.156 53.2257C44.029 53.2761 43.8868 53.3013 43.7296 53.3013H43.0036ZM44.5462 52.2245C44.5462 52.0955 44.5281 51.9775 44.4918 51.8706C44.4555 51.7617 44.402 51.668 44.3315 51.5893C44.2629 51.5107 44.1782 51.4502 44.0774 51.4079C43.9766 51.3635 43.8606 51.3413 43.7296 51.3413H43.2123V53.1138H43.7296C43.8626 53.1138 43.9796 53.0916 44.0804 53.0472C44.1833 53.0009 44.269 52.9383 44.3375 52.8597C44.4061 52.779 44.4575 52.6853 44.4918 52.5784C44.5281 52.4695 44.5462 52.3516 44.5462 52.2245ZM47.0772 53.3013V51.5379L46.2938 52.902H46.1698L45.3834 51.5379V53.3013H45.1747V51.1538H45.3894L46.2303 52.6238L47.0711 51.1538H47.2859V53.3013H47.0772ZM48.7012 53.3164C48.552 53.3164 48.4149 53.2862 48.2898 53.2257C48.1668 53.1632 48.061 53.0815 47.9723 52.9807C47.8835 52.8778 47.815 52.7609 47.7666 52.6298C47.7182 52.4988 47.694 52.3647 47.694 52.2275C47.694 52.0844 47.7192 51.9473 47.7696 51.8162C47.822 51.6851 47.8936 51.5692 47.9844 51.4684C48.0751 51.3675 48.182 51.2879 48.305 51.2294C48.428 51.1689 48.5611 51.1387 48.7042 51.1387C48.8534 51.1387 48.9895 51.1709 49.1126 51.2355C49.2376 51.298 49.3434 51.3806 49.4301 51.4835C49.5189 51.5863 49.5874 51.7033 49.6358 51.8343C49.6842 51.9634 49.7084 52.0955 49.7084 52.2306C49.7084 52.3737 49.6822 52.5109 49.6298 52.6419C49.5794 52.773 49.5088 52.8889 49.418 52.9898C49.3293 53.0886 49.2235 53.1682 49.1005 53.2287C48.9775 53.2872 48.8444 53.3164 48.7012 53.3164ZM47.9057 52.2275C47.9057 52.3445 47.9249 52.4574 47.9632 52.5663C48.0015 52.6732 48.0559 52.769 48.1265 52.8537C48.1971 52.9363 48.2808 53.0029 48.3776 53.0533C48.4743 53.1017 48.5822 53.1259 48.7012 53.1259C48.8222 53.1259 48.9321 53.0997 49.0309 53.0472C49.1297 52.9948 49.2134 52.9262 49.2819 52.8416C49.3505 52.7569 49.4029 52.6611 49.4392 52.5542C49.4775 52.4473 49.4967 52.3385 49.4967 52.2275C49.4967 52.1106 49.4765 51.9987 49.4362 51.8918C49.3979 51.7829 49.3434 51.6871 49.2729 51.6045C49.2023 51.5218 49.1186 51.4563 49.0218 51.4079C48.925 51.3575 48.8182 51.3322 48.7012 51.3322C48.5802 51.3322 48.4703 51.3585 48.3715 51.4109C48.2727 51.4613 48.189 51.5289 48.1205 51.6135C48.0519 51.6982 47.9985 51.794 47.9602 51.9009C47.9239 52.0078 47.9057 52.1166 47.9057 52.2275ZM50.1163 53.3013V51.1538H51.0207C51.1134 51.1538 51.1991 51.174 51.2778 51.2143C51.3564 51.2526 51.424 51.304 51.4804 51.3685C51.5369 51.4311 51.5802 51.5026 51.6105 51.5833C51.6428 51.664 51.6589 51.7456 51.6589 51.8283C51.6589 51.9069 51.6468 51.9825 51.6226 52.0551C51.6004 52.1257 51.5682 52.1902 51.5258 52.2487C51.4835 52.3052 51.433 52.3536 51.3746 52.3939C51.3161 52.4322 51.2506 52.4584 51.178 52.4725L51.7073 53.3013H51.4683L50.9602 52.5088H50.325V53.3013H50.1163ZM50.325 52.3213H51.0298C51.0923 52.3213 51.1487 52.3082 51.1991 52.282C51.2516 52.2538 51.2959 52.2165 51.3322 52.1701C51.3685 52.1237 51.3968 52.0713 51.4169 52.0128C51.4371 51.9543 51.4472 51.8928 51.4472 51.8283C51.4472 51.7638 51.4351 51.7023 51.4109 51.6438C51.3887 51.5833 51.3574 51.5309 51.3171 51.4865C51.2788 51.4421 51.2324 51.4069 51.178 51.3806C51.1255 51.3544 51.0701 51.3413 51.0116 51.3413H50.325V52.3213Z" fill="white"/>
<path d="M0.271233 46.693L0 39.1725H0.731507V43.5615L5.19452 39.3697L2.6137 42.4684L5.32603 46.6519H5.04658L2.16164 42.904L0.731507 44.3834V46.6848L0.271233 46.693Z" fill="white"/>
<path d="M7.90686 46.8493C7.33152 46.8493 7.34796 46.7096 7.08494 46.3151C6.71303 45.6706 6.52007 44.9385 6.52604 44.1945L6.41919 41.1863H7.14248L7.04385 44.5808C7.04385 45.8301 7.56987 46.1753 8.42467 46.1753C8.63723 46.1625 8.84589 46.1125 9.04111 46.0274C9.24614 45.9592 9.43796 45.8563 9.60823 45.7233C9.7844 45.5854 9.94188 45.4251 10.0767 45.2466C10.2157 45.0552 10.3264 44.8448 10.4055 44.6219V41.1617H11.1288L10.8904 46.0274C10.8904 46.2247 11.1945 46.0274 11.3671 46.0274V46.6685H11.0712C10.9165 46.6733 10.766 46.6172 10.6521 46.5123C10.5973 46.4677 10.5533 46.4112 10.5234 46.3472C10.4935 46.2831 10.4785 46.2131 10.4795 46.1425V45.3863C10.2476 45.8016 9.90654 46.1456 9.49316 46.3808C9.00804 46.6583 8.46487 46.8187 7.90686 46.8493Z" fill="white"/>
<path d="M12.2547 46.1918L16.2574 41.6137L12.3286 41.7041L11.9259 41.0466L16.7506 41.1616V41.6466L13.0437 46.1425L16.7834 46.6931H12.2547V46.1918Z" fill="white"/>
<path d="M25.6273 46.6932L25.389 43.6027C25.4264 43.1094 25.3208 42.6157 25.0848 42.1808C24.9874 42.03 24.8515 41.9078 24.6911 41.8269C24.5308 41.746 24.3518 41.7093 24.1725 41.7206C23.9661 41.7193 23.7617 41.7613 23.5725 41.8438C23.3801 41.9185 23.2042 42.0302 23.0547 42.1726C22.8873 42.3145 22.7455 42.4841 22.6355 42.674C22.5097 42.8719 22.4154 43.0882 22.3561 43.3151L21.8958 46.7425L21.6492 43.6027C21.6913 43.1093 21.5945 42.6139 21.3698 42.1726C21.2713 42.0233 21.135 41.9028 20.9747 41.8233C20.8144 41.7439 20.6359 41.7085 20.4575 41.7206C20.0433 41.7198 19.6441 41.8753 19.3396 42.1562C19.0097 42.4684 18.7686 42.8627 18.641 43.2986L18.2301 46.6932L17.9424 41.1699H18.5999V42.411C18.8025 42.0089 19.109 41.6683 19.4876 41.4247C19.8355 41.2087 20.237 41.0948 20.6465 41.0959C21.0578 41.0736 21.4616 41.2121 21.7725 41.4822C22.0602 41.7524 22.2411 42.1171 22.2821 42.5096C22.4634 42.0925 22.7617 41.7369 23.1411 41.486C23.5204 41.2351 23.9643 41.0996 24.4191 41.0959C24.6889 41.0857 24.9571 41.1422 25.1999 41.2603C25.4132 41.3721 25.5922 41.5397 25.7177 41.7452C25.8554 41.9764 25.9527 42.2293 26.0054 42.4932C26.067 42.8183 26.0973 43.1486 26.0958 43.4795L25.6273 46.6932Z" fill="white"/>
<path d="M38.0302 46.6849H37.3151V43.6027C37.35 43.1088 37.2506 42.6146 37.0274 42.1726C36.9363 42.0278 36.8084 41.9097 36.6568 41.8303C36.5053 41.7509 36.3354 41.713 36.1644 41.7205C35.945 41.7216 35.7276 41.7634 35.5233 41.8438C35.3081 41.9172 35.1076 42.0285 34.9316 42.1726C34.7458 42.3145 34.5823 42.4835 34.4466 42.6739C34.3134 42.8663 34.2082 43.0766 34.1343 43.2986L33.8631 46.6767L33.4357 41.1698H34.0932V42.4109C34.2035 42.2092 34.345 42.0261 34.5124 41.8684C34.6754 41.7013 34.8607 41.5575 35.0631 41.441C35.269 41.3195 35.4901 41.2255 35.7206 41.1616C35.9534 41.0972 36.1942 41.0667 36.4357 41.0712C36.703 41.0596 36.9688 41.1162 37.2083 41.2356C37.4162 41.3452 37.5897 41.5102 37.7096 41.7123C37.8494 41.9446 37.9442 42.2011 37.9891 42.4684C38.0478 42.7938 38.0753 43.1241 38.0713 43.4547L38.0302 46.6849Z" fill="white"/>
<path d="M47.293 46.6849L45.5177 41.1617L47.6711 46.0274L49.9232 41.1863L48.0574 46.6849H47.293Z" fill="white"/>
<path d="M51.2549 39.9288V39.6411C51.2671 39.5611 51.3099 39.4889 51.3743 39.4399C51.4387 39.3908 51.5197 39.3687 51.6001 39.3781C51.6805 39.3687 51.7614 39.3908 51.8258 39.4399C51.8902 39.4889 51.9331 39.5611 51.9453 39.6411V39.9288C51.9331 40.0088 51.8902 40.081 51.8258 40.1301C51.7614 40.1791 51.6805 40.2013 51.6001 40.1918C51.5197 40.2013 51.4387 40.1791 51.3743 40.1301C51.3099 40.081 51.2671 40.0088 51.2549 39.9288ZM51.6083 46.685C51.5623 46.6839 51.5169 46.6737 51.4748 46.6548C51.4328 46.636 51.395 46.6089 51.3636 46.5752C51.3322 46.5415 51.3078 46.5018 51.292 46.4586C51.2761 46.4153 51.2691 46.3693 51.2713 46.3233L51.4604 41.1617H51.6247L51.9535 46.3151C51.9557 46.3622 51.9485 46.4093 51.9322 46.4535C51.916 46.4978 51.891 46.5383 51.8588 46.5728C51.8267 46.6072 51.7879 46.6349 51.7449 46.6542C51.7019 46.6735 51.6554 46.6839 51.6083 46.685Z" fill="white"/>
<path d="M31.8246 45.7233V43.2576C31.8458 42.9575 31.8041 42.6563 31.7022 42.3732C31.6003 42.0902 31.4404 41.8315 31.2328 41.6138C31.0132 41.4093 30.7541 41.252 30.4713 41.1516C30.1886 41.0513 29.8883 41.0099 29.589 41.0302C29.228 41.0318 28.8698 41.0929 28.5287 41.211C27.9954 41.4627 27.4816 41.7539 26.9917 42.0822L27.6821 41.9343C27.7091 41.9409 27.7373 41.9409 27.7643 41.9343C28.1084 41.7847 28.4662 41.669 28.8328 41.5891C29.1835 41.5124 29.5444 41.493 29.9013 41.5316C30.3698 41.5316 30.6246 41.8768 30.904 42.1562C31.155 42.4971 31.272 42.9183 31.2328 43.3398C31.2402 43.3722 31.2402 43.4059 31.2328 43.4384V43.4877C31.2097 43.535 31.1706 43.5724 31.1224 43.5935C31.0742 43.6146 31.0201 43.6179 30.9698 43.6028C30.7731 43.541 30.5727 43.4916 30.3698 43.4548C30.0983 43.4075 29.8234 43.3828 29.5479 43.3809C29.2286 43.3776 28.9104 43.4191 28.6027 43.5042C28.338 43.5755 28.0877 43.6923 27.8629 43.8494C27.6667 43.9903 27.5039 44.1727 27.3862 44.3836C27.2722 44.5955 27.2155 44.8335 27.2218 45.074C27.2192 45.2973 27.2641 45.5186 27.3533 45.7233C27.4437 45.9286 27.5752 46.1132 27.7396 46.2658C27.9157 46.4222 28.1191 46.5448 28.3396 46.6275C28.5869 46.7184 28.8488 46.7629 29.1122 46.759C29.5246 46.7573 29.9316 46.6647 30.304 46.4877C30.3702 46.4614 30.4336 46.4283 30.4931 46.3891C30.2318 46.494 29.9527 46.547 29.6712 46.5453C29.4491 46.6011 29.2174 46.6063 28.9931 46.5606C28.7688 46.5148 28.5576 46.4193 28.3751 46.281C28.1927 46.1428 28.0436 45.9653 27.9389 45.7617C27.8342 45.5581 27.7766 45.3336 27.7703 45.1047C27.764 44.8759 27.8092 44.6485 27.9025 44.4395C27.9958 44.2304 28.1349 44.045 28.3094 43.8969C28.484 43.7488 28.6896 43.6418 28.9111 43.5837C29.1325 43.5257 29.3642 43.5182 29.589 43.5617C29.8537 43.5553 30.1172 43.6013 30.364 43.6973C30.6109 43.7932 30.8363 43.9371 31.0273 44.1206H31.0766C31.3003 44.3592 31.4265 44.673 31.4301 45.0001C31.4905 45.3252 31.518 45.6557 31.5122 45.9864C31.5042 46.0197 31.489 46.051 31.4677 46.0779C31.4464 46.1049 31.4195 46.1269 31.389 46.1425H31.3396C31.3023 46.1663 31.2716 46.1991 31.2503 46.2379C31.229 46.2766 31.2178 46.3202 31.2178 46.3644C31.2178 46.4087 31.229 46.4522 31.2503 46.491C31.2716 46.5298 31.3023 46.5626 31.3396 46.5864C31.4547 46.6685 31.389 46.5864 31.5287 46.5864H31.6602H31.8164L32.0794 46.0932C32.0774 46.0557 32.0647 46.0195 32.0429 45.9889C32.0211 45.9583 31.9909 45.9346 31.9561 45.9206C31.8657 45.9535 31.8246 45.8631 31.8246 45.7233Z" fill="white"/>
<path d="M44.4493 42.8383C44.3159 42.501 44.1207 42.1916 43.8739 41.9259C43.6286 41.6611 43.3322 41.4487 43.0027 41.3013C42.6582 41.1496 42.2859 41.0712 41.9095 41.0712C41.5331 41.0712 41.1609 41.1496 40.8164 41.3013C40.4888 41.4483 40.1929 41.6577 39.9452 41.9177C39.6984 42.1834 39.5032 42.4928 39.3698 42.83C39.2346 43.1815 39.165 43.5548 39.1643 43.9314C39.1625 44.3056 39.2323 44.6766 39.3698 45.0246C39.4953 45.3614 39.6883 45.6691 39.9369 45.9287C40.1896 46.1965 40.4958 46.4081 40.8357 46.5497C41.1756 46.6913 41.5415 46.7598 41.9095 46.7506C42.2759 46.7561 42.6395 46.6859 42.9775 46.5445C43.3155 46.4031 43.6207 46.1934 43.8739 45.9287C44.1224 45.6674 44.3178 45.3603 44.4493 45.0246C44.7232 44.3187 44.7232 43.5359 44.4493 42.83V42.8383ZM42.0411 46.43C41.6609 46.4137 41.2931 46.29 40.9804 46.0733C40.6676 45.8565 40.4227 45.5556 40.2739 45.2054C40.1823 45.0728 40.1077 44.9292 40.052 44.778C39.9488 44.502 39.8959 44.2097 39.8958 43.915C39.8949 43.6168 39.9507 43.3211 40.0602 43.0437C40.1599 42.7823 40.3046 42.5403 40.4876 42.3287C40.5499 42.2567 40.6187 42.1907 40.6931 42.1314C40.8648 41.9467 41.0719 41.7985 41.3021 41.6954C41.5322 41.5923 41.7807 41.5366 42.0328 41.5314C42.6094 41.6265 43.1335 41.9233 43.5116 42.3689C43.8897 42.8145 44.0973 43.3799 44.0973 43.9643C44.0973 44.5487 43.8897 45.1141 43.5116 45.5597C43.1335 46.0052 42.6094 46.302 42.0328 46.3972L42.0411 46.43Z" fill="white"/>
<path d="M78.0248 40.7753V40.5205C78.0278 40.4841 78.0382 40.4486 78.0553 40.4163C78.0724 40.384 78.0958 40.3554 78.1243 40.3324C78.1527 40.3094 78.1854 40.2923 78.2206 40.2823C78.2558 40.2722 78.2926 40.2694 78.3289 40.274C78.4005 40.2669 78.4721 40.2877 78.5288 40.3321C78.5854 40.3765 78.6228 40.4411 78.633 40.5123V40.7671C78.633 40.8986 78.4933 40.9973 78.3289 40.9973C78.1563 41.0055 78.0248 40.9068 78.0248 40.7753ZM78.3371 46.7589C78.2965 46.7589 78.2562 46.7508 78.2188 46.735C78.1814 46.7192 78.1475 46.6961 78.1191 46.6669C78.0908 46.6378 78.0685 46.6033 78.0537 46.5655C78.039 46.5276 78.0319 46.4872 78.033 46.4466L78.2056 41.8685H78.3535L78.6412 46.4384C78.6435 46.4796 78.6372 46.521 78.623 46.5598C78.6087 46.5986 78.5866 46.6341 78.5582 46.6641C78.5297 46.6941 78.4954 46.718 78.4574 46.7343C78.4194 46.7506 78.3785 46.759 78.3371 46.7589Z" fill="white"/>
<path d="M64.8411 46.7179L63.1973 41.8686L65.2027 46.1344L67.1671 41.8275L65.5233 46.759L64.8411 46.7179Z" fill="white"/>
<path d="M76.6356 42.0329C76.0755 42.1587 75.5487 42.4025 75.0904 42.748C74.7665 42.9736 74.5265 43.3002 74.4082 43.6768L74.0137 46.7425L73.7424 41.5891L74.3671 41.8275V43.0028C74.5269 42.6839 74.7541 42.4035 75.0328 42.1809C75.2781 41.9646 75.5935 41.8449 75.9205 41.8439H76.2082L76.6356 42.0329Z" fill="white"/>
<path d="M72.5426 43.3234C72.4269 43.0193 72.2539 42.7402 72.033 42.5014C71.8173 42.2632 71.5541 42.0729 71.2604 41.9425C70.9566 41.8021 70.6251 41.7318 70.2905 41.7371C69.956 41.7329 69.6247 41.8031 69.3207 41.9425C69.0292 42.0768 68.7668 42.2666 68.5481 42.5014C68.3268 42.7385 68.1562 43.0181 68.0467 43.3234C67.9209 43.6341 67.8567 43.9663 67.8576 44.3014C67.8548 44.6307 67.9162 44.9573 68.0385 45.2631C68.15 45.5673 68.3203 45.8466 68.5398 46.085C68.7579 46.3164 69.0208 46.501 69.3124 46.6275C69.6191 46.7678 69.9533 46.838 70.2905 46.833C70.6251 46.8382 70.9566 46.768 71.2604 46.6275C71.5532 46.503 71.8165 46.3182 72.033 46.085C72.2514 45.8443 72.4241 45.5658 72.5426 45.2631C72.6648 44.9573 72.7262 44.6307 72.7234 44.3014C72.7269 43.9668 72.6655 43.6346 72.5426 43.3234ZM70.4138 46.5042C70.0801 46.4925 69.7563 46.3878 69.4789 46.2019C69.2015 46.0161 68.9816 45.7563 68.8439 45.4521C68.7679 45.333 68.7046 45.2063 68.6549 45.074C68.562 44.8299 68.5146 44.5709 68.5152 44.3097C68.5147 44.0431 68.562 43.7787 68.6549 43.5288C68.746 43.2971 68.8767 43.0829 69.0412 42.896C69.0975 42.8344 69.1579 42.7767 69.222 42.7234C69.3743 42.5591 69.5586 42.4277 69.7636 42.3373C69.9685 42.2468 70.1898 42.1992 70.4138 42.1973C70.9204 42.2862 71.3795 42.5508 71.7103 42.9447C72.041 43.3385 72.2224 43.8364 72.2224 44.3508C72.2224 44.8651 72.041 45.363 71.7103 45.7568C71.3795 46.1507 70.9204 46.4153 70.4138 46.5042Z" fill="white"/>
<path d="M9.76428 20.3014L11.9752 15.1973L14.2026 10.1178L16.4383 5.03014C16.7999 4.20822 17.1369 3.32055 17.4821 2.46575L17.9752 1.17534C18.0111 0.924586 18.1077 0.686403 18.2567 0.481545C18.4057 0.276687 18.6025 0.11137 18.83 0L18.904 0C20.4246 0.624657 20.9588 1.95616 21.8629 3.01644C22.767 4.07671 23.5643 5.21918 24.4437 6.30411C25.3232 7.38904 26.2273 8.43288 27.1725 9.43562C28.0506 10.4336 29.063 11.305 30.1807 12.0247H30.0985C33.2876 12.9534 36.5752 13.726 39.8383 14.4904C43.1013 15.2548 46.4136 15.9616 49.7013 16.6274C52.9889 17.2931 56.2766 17.9178 59.5643 18.5589L69.4931 20.3753V20.474C66.1561 20.063 62.8191 19.5945 59.4903 19.0931C56.1615 18.5918 52.841 18.0575 49.5204 17.4493C46.1999 16.8411 42.8958 16.2247 39.5999 15.5342C36.304 14.8438 33.0246 14.0712 29.7369 13.1425H29.6876H29.6465C28.3999 12.3546 27.2733 11.3912 26.3013 10.2822C25.3396 9.24658 24.4191 8.21918 23.5068 7.10137C22.5944 5.98356 21.7396 4.92329 20.8766 3.8137C20.0136 2.70411 18.9451 1.73425 18.8383 0.0821918H18.9369C19.052 0.308527 19.1093 0.55986 19.1035 0.813726C19.0978 1.06759 19.0292 1.31608 18.904 1.53699L18.3862 2.83562C18.0246 3.65753 17.6629 4.54521 17.2931 5.4C16.5369 7.09315 15.7889 8.79452 14.9752 10.4548L12.5095 15.4438C11.6876 17.0877 10.7999 18.7315 9.89579 20.3753L9.76428 20.3014Z" fill="white"/>
<path d="M18.9042 0C25.4795 2.02192 32.1371 4.00274 38.7781 5.89315C42.0658 6.83836 45.4357 7.77534 48.7727 8.64658C52.1008 9.57417 55.4788 10.3123 58.8905 10.8575V10.9644C57.1602 10.8255 55.4412 10.5701 53.7453 10.2C52.0466 9.87123 50.3508 9.51233 48.6576 9.12329C45.2877 8.30137 41.9425 7.47945 38.5891 6.59178C35.2357 5.70411 31.9151 4.73425 28.5946 3.78904L23.6138 2.33425L21.1234 1.64384L19.8823 1.23288C19.6308 1.15188 19.4065 1.00318 19.2339 0.803101C19.0614 0.60302 18.9473 0.359283 18.9042 0.0986301V0Z" fill="white"/>
<path d="M29.9917 12.5918C30.4027 13.3398 30.2712 13.5864 30.0575 13.7754L29.515 14.4001C29.1616 14.8275 28.8082 15.222 28.4876 15.6822C28.1783 16.0685 27.9033 16.4811 27.6657 16.9151C27.6684 16.9425 27.6684 16.97 27.6657 16.9973C27.6732 16.976 27.6732 16.9528 27.6657 16.9316C27.6657 16.8576 27.6657 16.9316 27.6657 16.9316V17.4329V18.2959C27.526 20.5562 27.4027 22.8083 27.2137 25.0603C27.0246 27.3124 26.8438 29.5562 26.6383 31.8083C26.4328 34.0603 26.178 36.2959 25.8657 38.5398H25.7671C25.6931 36.2795 25.7013 34.0192 25.7013 31.7672C25.7013 29.5151 25.7424 27.2466 25.8 24.9946L25.9643 18.2384V17.4165V16.8494C25.9643 16.759 25.9643 16.6603 26.0054 16.5699C26.0375 16.4636 26.0759 16.3593 26.1205 16.2576C26.391 15.6732 26.7274 15.1217 27.1232 14.6138C27.4684 14.1453 27.8301 13.6932 28.1917 13.2494L28.7506 12.5918C28.9068 12.3535 29.1452 12.1727 29.9342 12.5014L29.9917 12.5918Z" fill="white"/>
<path d="M10.9644 18.1233C11.0458 18.1896 11.1084 18.2761 11.1459 18.3742C11.1834 18.4723 11.1945 18.5785 11.1781 18.6822V19.2411V20.3671V22.6027V27.0904C11.1781 30.0822 11.1781 33.0739 11.0302 36.0657H10.9233C10.9233 34.5781 10.9233 33.0822 10.8576 31.5863L10.8411 27.1233L10.7507 22.6356L10.685 20.3753V19.2493V18.6904C10.6665 18.5876 10.6742 18.4818 10.7072 18.3827C10.7403 18.2837 10.7976 18.1945 10.874 18.1233H10.9644Z" fill="white"/>
<path d="M37.3727 29.2602L37.3234 20.4904V20.1041L37.7179 20.178C38.6795 20.4164 39.6576 20.6465 40.6193 20.7863C40.7315 20.7936 40.844 20.7936 40.9562 20.7863H41.096C41.096 20.7863 41.1946 20.7863 41.2357 20.7863C41.2803 20.7969 41.3222 20.8164 41.359 20.8438C41.3947 20.8743 41.4252 20.9104 41.4494 20.9506C41.4706 20.9954 41.4871 21.0422 41.4987 21.0904C41.552 21.361 41.5768 21.6365 41.5727 21.9123C41.5727 22.4219 41.5727 22.915 41.5727 23.4164C41.5069 25.4219 41.359 27.4109 41.2028 29.4V29.4493H41.096L37.3727 29.2602ZM37.4467 29.1863L41.096 29.3424L41.0384 29.3917C41.1124 27.4027 41.1617 25.4054 41.1453 23.4164C41.1453 22.9232 41.1453 22.4219 41.0877 21.9369C41.0811 21.7043 41.0508 21.473 40.9973 21.2465V21.2054C40.9942 21.219 40.9942 21.233 40.9973 21.2465H41.0877C41.0877 21.2465 41.1946 21.2465 41.1699 21.2465C41.0879 21.253 41.0054 21.253 40.9234 21.2465H40.5206C39.5014 21.1479 38.5234 20.9506 37.5371 20.7616L37.9727 20.5479L37.4467 29.1863Z" fill="white"/>
<path d="M47.9178 22.5617C47.8356 24.9042 47.6548 27.2795 47.4576 29.7781L47.4083 29.7206C48.4439 29.8192 49.4713 29.9096 50.5069 29.9754L50.4576 30.0165C50.4576 28.7179 50.5398 27.411 50.5315 26.1124C50.5233 24.8138 50.5315 23.5151 50.5315 22.2083L50.7535 22.4302C49.7261 22.4877 48.8055 22.5535 47.9178 22.5617ZM47.3096 21.937C48.485 21.937 49.6274 21.937 50.7041 22.0028H50.9589V22.1918C50.8439 23.4905 50.7863 24.7973 50.7206 26.0959C50.6548 27.3946 50.6302 28.6932 50.5809 29.9918H50.5398C49.5041 29.9014 48.4767 29.8192 47.4411 29.7617H47.4V29.7042C47.2932 27.2548 47.2521 24.6083 47.3096 21.937Z" fill="white"/>
<path d="M60.5014 23.6219C60.5014 25.841 60.5014 28.0767 60.411 30.3945L60.3616 30.3451L62.6301 30.4109L62.5808 30.4602V23.7287L62.6301 23.7862C61.9182 23.768 61.2077 23.7131 60.5014 23.6219ZM60.1479 23.2191C60.9774 23.3253 61.8005 23.4762 62.6137 23.6712H62.663V30.5095H62.6301L60.3616 30.4109H60.3123C60.2219 28.0602 60.1562 25.6438 60.1479 23.2191Z" fill="white"/>
<path d="M66.378 30.411L68.4082 30.6987L68.3507 30.7562V24.4521L68.4 24.5014L66.3863 24.3535L66.5917 24.1726L66.378 30.411ZM66.3041 30.4767L66.2301 24.1891V23.9754L66.4356 24.0165L68.4082 24.411H68.4575V30.8055H68.4L66.3041 30.4767Z" fill="white"/>
<path d="M35.8273 29.8604C36.34 29.9769 36.8633 30.0402 37.389 30.0494C37.9068 30.0494 38.4164 30.1234 38.9342 30.148C39.9616 30.1974 40.989 30.2138 42.0164 30.2056C42.2014 30.2186 42.3869 30.1882 42.5582 30.1168C42.7294 30.0455 42.8816 29.9352 43.0027 29.7946C43.1917 29.4987 42.8465 29.3261 42.5917 29.3261C41.6054 29.3261 40.6109 29.3261 39.6246 29.2686C39.1479 29.2686 38.6794 29.2193 38.2027 29.1864C37.7134 29.1814 37.2259 29.1263 36.7479 29.022C36.5596 28.9853 36.3655 28.9922 36.1803 29.042C35.9951 29.0919 35.8238 29.1834 35.6794 29.3097C35.441 29.5398 35.5232 29.7782 35.8273 29.8604Z" fill="white"/>
<path d="M46.6027 30.1972C47.4246 30.2794 48.189 30.3452 48.9862 30.3534C49.7835 30.3616 50.5479 30.2712 51.3287 30.3534C51.4366 30.3615 51.5448 30.3442 51.6448 30.3028C51.7447 30.2614 51.8335 30.1971 51.9041 30.115C52.0109 29.9424 51.8136 29.8849 51.6657 29.8767C50.9178 29.8109 50.1698 29.8767 49.4136 29.8767C48.6575 29.8767 47.9013 29.8109 47.1452 29.737C47.0366 29.7219 46.9262 29.7287 46.8203 29.7569C46.7145 29.7851 46.6153 29.8342 46.5287 29.9014C46.4054 30.0164 46.4136 30.1808 46.6027 30.1972Z" fill="white"/>
<path d="M59.6549 30.7233C60.7481 30.7233 61.8495 30.7233 62.9426 30.7233C63.1397 30.733 63.335 30.6813 63.5015 30.5754C63.6248 30.4932 63.6166 30.3863 63.4522 30.3781C62.2933 30.3781 61.1426 30.3781 59.9837 30.3781C59.7878 30.3781 59.5984 30.4481 59.4495 30.5754C59.3344 30.7069 59.5563 30.7233 59.6467 30.7233H59.6549Z" fill="white"/>
<path d="M65.9672 30.4109C66.157 30.5099 66.355 30.5924 66.559 30.6575C66.7629 30.7096 66.9737 30.729 67.1836 30.715C67.643 30.6739 68.1051 30.6739 68.5645 30.715C68.7042 30.715 68.8768 30.5424 68.6795 30.5178C68.2586 30.4768 67.8347 30.4768 67.4138 30.5178C67.2041 30.5506 66.9906 30.5506 66.7809 30.5178C66.5819 30.4604 66.3892 30.3833 66.2056 30.2876C66.1728 30.2697 66.1361 30.2602 66.0987 30.2602C66.0614 30.2602 66.0246 30.2697 65.9919 30.2876C65.9508 30.2876 65.9014 30.3945 65.9919 30.4274L65.9672 30.4109Z" fill="white"/>
<path d="M61.3889 39.4439L61.3971 39.5179V39.4439H61.3889Z" fill="white"/>
<path d="M61.874 46.4384L61.3973 39.5179L61.1178 42.674C60.9065 42.3439 60.6261 42.0635 60.2959 41.8521C59.9426 41.6194 59.5271 41.4991 59.1041 41.5069C58.7685 41.5004 58.4361 41.5736 58.1343 41.7206C57.8406 41.8654 57.5803 42.0697 57.3699 42.3206C57.148 42.5804 56.9753 42.8784 56.8603 43.2001C56.7569 43.5325 56.707 43.8793 56.7124 44.2275C56.7122 44.5813 56.7763 44.9321 56.9014 45.2631C57.0225 45.5848 57.2038 45.8805 57.4356 46.1343C57.6662 46.39 57.9457 46.5968 58.2576 46.7425C58.5757 46.8947 58.9241 46.9734 59.2767 46.9727C59.6703 46.9688 60.0559 46.861 60.3946 46.6603C60.7332 46.4598 61.0159 46.1771 61.2165 45.8384V46.3973C61.2169 46.4646 61.2318 46.531 61.2602 46.592C61.2885 46.6529 61.3297 46.7071 61.3809 46.7508C61.496 46.8527 61.6464 46.9057 61.8 46.8987C61.8876 46.9016 61.9747 46.8847 62.0548 46.8494L62.5315 46.5206C62.3672 46.496 61.874 46.6275 61.874 46.4384ZM61.1178 45.0083C61.0927 45.198 61.016 45.3771 60.8959 45.5261C60.8959 45.5754 60.8137 45.6001 60.7726 45.6494C60.6031 45.8958 60.3778 46.0987 60.115 46.2416C59.8522 46.3844 59.5593 46.4631 59.2603 46.4713C58.7926 46.5366 58.3161 46.4575 57.8947 46.2446C57.4732 46.0317 57.1268 45.6951 56.9018 45.2799C56.6769 44.8647 56.5841 44.3906 56.636 43.9213C56.6878 43.4519 56.8818 43.0096 57.1919 42.6535C57.5021 42.2974 57.9136 42.0445 58.3714 41.9287C58.8292 41.8129 59.3115 41.8397 59.7536 42.0055C60.1958 42.1714 60.5767 42.4683 60.8455 42.8566C61.1143 43.2448 61.2581 43.7059 61.2576 44.1782C61.2559 44.4606 61.2087 44.7409 61.1178 45.0083Z" fill="white"/>
</g>
<defs>
<clipPath id="clip0_200_7">
<rect width="78.6658" height="54" fill="white"/>
</clipPath>
</defs>
</svg>
