<svg width="49" height="50" viewBox="0 0 49 50" fill="none" xmlns="http://www.w3.org/2000/svg">
<path d="M37.7708 43.3923C41.7174 43.3923 44.9167 40.193 44.9167 36.2464C44.9167 32.2999 41.7174 29.1006 37.7708 29.1006C33.8243 29.1006 30.625 32.2999 30.625 36.2464C30.625 40.193 33.8243 43.3923 37.7708 43.3923Z" stroke="black" stroke-width="4.08333" stroke-linecap="round" stroke-linejoin="round"/>
<path d="M11.2279 43.3923C15.1744 43.3923 18.3737 40.193 18.3737 36.2464C18.3737 32.2999 15.1744 29.1006 11.2279 29.1006C7.28133 29.1006 4.08203 32.2999 4.08203 36.2464C4.08203 40.193 7.28133 43.3923 11.2279 43.3923Z" stroke="black" stroke-width="4.08333" stroke-linecap="round" stroke-linejoin="round"/>
<path d="M30.6237 12.7669C31.7513 12.7669 32.6654 11.8528 32.6654 10.7253C32.6654 9.59768 31.7513 8.68359 30.6237 8.68359C29.4961 8.68359 28.582 9.59768 28.582 10.7253C28.582 11.8528 29.4961 12.7669 30.6237 12.7669Z" stroke="black" stroke-width="4.08333" stroke-linecap="round" stroke-linejoin="round"/>
<path d="M24.5 36.2464V29.1006L18.375 22.9756L26.5417 16.8506L30.625 22.9756H34.7083" stroke="black" stroke-width="4.08333" stroke-linecap="round" stroke-linejoin="round"/>
</svg>
