<svg width="50" height="50" viewBox="0 0 50 50" fill="none" xmlns="http://www.w3.org/2000/svg">
<path d="M30.6086 32.06C29.8736 30.9371 29.2816 29.8959 28.7303 28.9363C26.3416 24.8325 24.402 22.0559 18.7057 21.1984V11.7454C18.7057 7.80503 15.5003 4.59961 11.5599 4.59961C7.61948 4.59961 4.41406 7.80503 4.41406 11.7454V45.4329H8.4974V41.3496H14.6224V45.4329H18.7057V25.3429C22.2991 26.0371 23.3811 27.8542 25.1778 30.9779C25.7699 32.0192 26.4232 33.1217 27.2195 34.3263C31.7928 41.1863 36.407 45.4329 45.2474 45.4329V41.3496C38.1628 41.3496 34.6307 38.0829 30.6086 32.06ZM11.5599 8.68294C13.2545 8.68294 14.6224 10.0509 14.6224 11.7454V20.9329H8.4974V11.7454C8.4974 10.0509 9.86531 8.68294 11.5599 8.68294ZM8.4974 37.2663V33.1829H14.6224V37.2663H8.4974ZM14.6224 29.0996H8.4974V25.0163H14.6224V29.0996Z" fill="black"/>
</svg>
