<svg width="49" height="50" viewBox="0 0 49 50" fill="none" xmlns="http://www.w3.org/2000/svg">
<path d="M4.08203 39.3079V27.0579C4.08203 26.1392 4.26918 25.3055 4.64349 24.5569C5.0178 23.8083 5.5112 23.1447 6.1237 22.5663V16.8496C6.1237 15.1482 6.71918 13.702 7.91016 12.5111C9.10113 11.3201 10.5473 10.7246 12.2487 10.7246H20.4154C21.198 10.7246 21.9296 10.8696 22.6102 11.1595C23.2907 11.4494 23.9202 11.8489 24.4987 12.3579C25.0772 11.8475 25.7067 11.448 26.3872 11.1595C27.0678 10.8709 27.7994 10.726 28.582 10.7246H36.7487C38.4501 10.7246 39.8963 11.3201 41.0872 12.5111C42.2782 13.702 42.8737 15.1482 42.8737 16.8496V22.5663C43.4862 23.1447 43.9796 23.8083 44.3539 24.5569C44.7282 25.3055 44.9154 26.1392 44.9154 27.0579V39.3079H40.832V35.2246H8.16536V39.3079H4.08203ZM26.5404 20.9329H38.7904V16.8496C38.7904 16.2711 38.5944 15.7866 38.2024 15.3959C37.8104 15.0053 37.3258 14.8093 36.7487 14.8079H28.582C28.0036 14.8079 27.519 15.0039 27.1284 15.3959C26.7377 15.7879 26.5417 16.2725 26.5404 16.8496V20.9329ZM10.207 20.9329H22.457V16.8496C22.457 16.2711 22.261 15.7866 21.869 15.3959C21.477 15.0053 20.9925 14.8093 20.4154 14.8079H12.2487C11.6702 14.8079 11.1857 15.0039 10.795 15.3959C10.4044 15.7879 10.2084 16.2725 10.207 16.8496V20.9329Z" fill="black"/>
</svg>
