<svg width="49" height="50" viewBox="0 0 49 50" fill="none" xmlns="http://www.w3.org/2000/svg">
<path d="M12.2509 12.7666C12.2509 12.2251 12.466 11.7058 12.8489 11.3229C13.2318 10.94 13.7511 10.7249 14.2925 10.7249C14.834 10.7249 15.3533 10.94 15.7362 11.3229C16.1191 11.7058 16.3342 12.2251 16.3342 12.7666V25.0697C17.6245 25.1922 18.9884 25.4617 20.4175 25.917V22.9749H32.6675V30.0901C34.0589 30.071 35.4379 29.8262 36.7509 29.3654V12.7666C36.7509 11.1422 36.1056 9.58423 34.9569 8.43557C33.8082 7.28691 32.2503 6.6416 30.6259 6.6416C29.0014 6.6416 27.4435 7.28691 26.2948 8.43557C25.1462 9.58423 24.5009 11.1422 24.5009 12.7666C24.5009 13.3081 24.716 13.8274 25.0989 14.2103C25.4818 14.5932 26.0011 14.8083 26.5425 14.8083C27.084 14.8083 27.6033 14.5932 27.9862 14.2103C28.3691 13.8274 28.5842 13.3081 28.5842 12.7666C28.5842 12.2251 28.7993 11.7058 29.1822 11.3229C29.5651 10.94 30.0844 10.7249 30.6259 10.7249C31.1674 10.7249 31.6867 10.94 32.0696 11.3229C32.4524 11.7058 32.6675 12.2251 32.6675 12.7666V18.8916H20.4175V12.7666C20.4175 11.1422 19.7722 9.58423 18.6236 8.43557C17.4749 7.28691 15.917 6.6416 14.2925 6.6416C12.6681 6.6416 11.1102 7.28691 9.96152 8.43557C8.81286 9.58423 8.16754 11.1422 8.16754 12.7666C8.16754 13.3081 8.38265 13.8274 8.76554 14.2103C9.14842 14.5932 9.66773 14.8083 10.2092 14.8083C10.7507 14.8083 11.27 14.5932 11.6529 14.2103C12.0358 13.8274 12.2509 13.3081 12.2509 12.7666ZM13.4595 31.1926C11.3689 31.4499 9.98871 32.3094 9.40479 32.7566C8.97377 33.0847 8.43005 33.2282 7.89325 33.1554C7.35644 33.0827 6.87052 32.7997 6.54238 32.3686C6.21424 31.9376 6.07076 31.3939 6.14351 30.8571C6.21626 30.3203 6.49927 29.8344 6.93029 29.5062C7.93479 28.7426 9.9785 27.5074 12.9593 27.1379C15.9708 26.7684 19.7703 27.3012 24.215 29.8268C31.9489 34.2245 38.1719 31.16 39.793 30.2004C40.2581 29.9353 40.8087 29.8636 41.3263 30.0006C41.8438 30.1376 42.2868 30.4724 42.5599 30.9329C42.833 31.3933 42.9142 31.9426 42.7862 32.4625C42.6582 32.9823 42.3311 33.4311 41.8755 33.7121C39.6766 35.0146 31.7713 38.8203 22.1958 33.3772C18.4473 31.2457 15.5237 30.9374 13.4595 31.1926ZM9.40479 40.9212C9.99075 40.4741 11.3689 39.6145 13.4595 39.3573C15.5216 39.1021 18.4473 39.4104 22.1979 41.5419C31.7733 46.9849 39.6745 43.1793 41.8755 41.8787C42.1062 41.742 42.3077 41.5611 42.4685 41.3465C42.6293 41.1319 42.7463 40.8877 42.8128 40.6279C42.8792 40.3681 42.8938 40.0977 42.8558 39.8322C42.8178 39.5667 42.7278 39.3113 42.5911 39.0806C42.4543 38.8499 42.2735 38.6484 42.0589 38.4876C41.8442 38.3267 41.6 38.2098 41.3402 38.1433C41.0804 38.0769 40.81 38.0622 40.5445 38.1003C40.2791 38.1383 40.0237 38.2283 39.793 38.365C38.1719 39.3246 31.9489 42.3891 24.215 37.9914C19.7703 35.4659 15.9708 34.933 12.9593 35.3046C9.9785 35.6721 7.93684 36.9073 6.93029 37.6729C6.51622 38.0067 6.24876 38.4889 6.18482 39.0169C6.12089 39.545 6.26553 40.0771 6.58796 40.5001C6.91039 40.9231 7.38517 41.2035 7.91125 41.2818C8.43733 41.3601 8.97319 41.23 9.40479 40.9191" fill="black"/>
</svg>
