<svg width="50" height="50" viewBox="0 0 50 50" fill="none" xmlns="http://www.w3.org/2000/svg">
<path d="M8.83333 45.4329C7.71042 45.4329 6.74947 45.0335 5.9505 44.2345C5.15153 43.4355 4.75136 42.4739 4.75 41.3496V8.68294C4.75 7.56003 5.15017 6.59908 5.9505 5.80011C6.75083 5.00114 7.71178 4.60097 8.83333 4.59961H41.5C42.6229 4.59961 43.5845 4.99978 44.3849 5.80011C45.1852 6.60044 45.5847 7.56139 45.5833 8.68294V41.3496C45.5833 42.4725 45.1838 43.4341 44.3849 44.2345C43.5859 45.0348 42.6243 45.4343 41.5 45.4329H8.83333ZM8.83333 33.1829V41.3496H12.9167V37.2663H11.8958C11.6236 37.2663 11.3854 37.1642 11.1812 36.96C10.9771 36.7559 10.875 36.5177 10.875 36.2454V33.1829H8.83333ZM8.83333 29.0996H10.875C10.875 28.5211 11.071 28.0366 11.463 27.6459C11.855 27.2553 12.3396 27.0593 12.9167 27.0579V21.9538C12.9167 21.1031 13.2147 20.3803 13.8109 19.7855C14.4071 19.1907 15.1298 18.8926 15.9792 18.8913H20.0625C20.9132 18.8913 21.6366 19.1894 22.2328 19.7855C22.829 20.3817 23.1264 21.1044 23.125 21.9538V27.0579C23.7035 27.0579 24.1887 27.2539 24.5807 27.6459C24.9727 28.0379 25.168 28.5225 25.1667 29.0996H41.5V8.68294H8.83333V29.0996ZM13.9375 34.2038H22.1042V30.1204H13.9375V34.2038ZM18.0208 16.8496C17.1701 16.8496 16.4474 16.5522 15.8526 15.9574C15.2578 15.3626 14.9597 14.6392 14.9583 13.7871C14.957 12.9351 15.2551 12.2123 15.8526 11.6189C16.4501 11.0254 17.1729 10.7273 18.0208 10.7246C18.8688 10.7219 19.5922 11.02 20.1911 11.6189C20.79 12.2177 21.0874 12.9405 21.0833 13.7871C21.0792 14.6337 20.7818 15.3572 20.1911 15.9574C19.6004 16.5577 18.877 16.8551 18.0208 16.8496ZM17 41.3496H19.0417V37.2663H17V41.3496ZM23.125 41.3496H41.5V33.1829H25.1667V36.2454C25.1667 36.5177 25.0646 36.7559 24.8604 36.96C24.6562 37.1642 24.4181 37.2663 24.1458 37.2663H23.125V41.3496ZM24.6562 16.7986C24.1458 16.152 23.7634 15.5055 23.5088 14.859C23.2543 14.2125 23.1264 13.5489 23.125 12.8684V12.2559C23.159 11.8475 23.321 11.4902 23.6109 11.184C23.9008 10.8777 24.2493 10.7246 24.6562 10.7246C25.0986 10.7246 25.4729 10.8689 25.7792 11.1574C26.0854 11.446 26.2215 11.8121 26.1875 12.2559V12.8684C26.1875 13.2427 26.2644 13.6081 26.4182 13.9647C26.572 14.3213 26.8354 14.7045 27.2083 15.1142C27.8208 15.8628 28.2632 16.5692 28.5354 17.2334C28.8076 17.8977 28.9437 18.5864 28.9437 19.2996C28.9437 19.742 28.7906 20.1251 28.4844 20.4491C28.1781 20.773 27.8038 20.9343 27.3615 20.9329C26.9191 20.9316 26.5536 20.7696 26.2651 20.447C25.9765 20.1244 25.8316 19.742 25.8302 19.2996C25.8302 18.8913 25.754 18.517 25.6015 18.1767C25.4491 17.8364 25.134 17.377 24.6562 16.7986ZM29.7604 16.7986C29.25 16.152 28.8675 15.5055 28.613 14.859C28.3585 14.2125 28.2305 13.5489 28.2292 12.8684V12.2559C28.2632 11.8475 28.4252 11.4902 28.7151 11.184C29.005 10.8777 29.3534 10.7246 29.7604 10.7246C30.2028 10.7246 30.5771 10.8696 30.8833 11.1595C31.1896 11.4494 31.3257 11.8149 31.2917 12.2559V12.8684C31.2917 13.2427 31.3686 13.6088 31.5224 13.9668C31.6762 14.3247 31.9396 14.7072 32.3125 15.1142C32.925 15.8628 33.3674 16.5692 33.6396 17.2334C33.9118 17.8977 34.0479 18.5864 34.0479 19.2996C34.0479 19.742 33.8948 20.1251 33.5885 20.4491C33.2823 20.773 32.908 20.9343 32.4656 20.9329C32.0233 20.9316 31.6571 20.7696 31.3672 20.447C31.0773 20.1244 30.933 19.742 30.9344 19.2996C30.9344 18.8913 30.8582 18.517 30.7057 18.1767C30.5533 17.8364 30.2382 17.377 29.7604 16.7986ZM34.9667 16.7986C34.4562 16.152 34.0738 15.5055 33.8193 14.859C33.5647 14.2125 33.4368 13.5489 33.4354 12.8684V12.2559C33.4694 11.8475 33.6314 11.4902 33.9213 11.184C34.2112 10.8777 34.5597 10.7246 34.9667 10.7246C35.409 10.7246 35.7833 10.8696 36.0896 11.1595C36.3958 11.4494 36.5319 11.8149 36.4979 12.2559V12.8684C36.4979 13.2427 36.5748 13.6088 36.7286 13.9668C36.8824 14.3247 37.1458 14.7072 37.5187 15.1142C38.1312 15.8628 38.5736 16.5692 38.8458 17.2334C39.1181 17.8977 39.2542 18.5864 39.2542 19.2996C39.2542 19.742 39.101 20.1251 38.7948 20.4491C38.4885 20.773 38.1142 20.9343 37.6719 20.9329C37.2295 20.9316 36.8634 20.7696 36.5735 20.447C36.2835 20.1244 36.1393 19.742 36.1406 19.2996C36.1406 18.8913 36.0644 18.517 35.912 18.1767C35.7595 17.8364 35.4444 17.377 34.9667 16.7986Z" fill="black"/>
</svg>
