<svg width="49" height="50" viewBox="0 0 49 50" fill="none" xmlns="http://www.w3.org/2000/svg">
<path d="M16.4545 4.59961C16.087 6.98836 16.6791 9.00961 18.2716 10.6634C19.2924 11.6842 19.6191 13.0521 19.2312 14.8079H21.2524C21.4974 13.685 21.5383 12.7663 21.3341 11.8475C21.1504 10.99 20.5174 9.96919 19.3945 8.74419C18.4758 7.60086 18.1491 6.23294 18.4758 4.59961H16.4545ZM21.5383 4.59961C21.1504 6.98836 21.7629 9.00961 23.3554 10.6634C24.3762 11.6842 24.6824 13.0521 24.3149 14.8079H26.3158C26.5404 13.685 26.6016 12.7663 26.4179 11.8475C26.2137 10.99 25.5808 9.96919 24.4987 8.74419C23.5391 7.60086 23.2329 6.23294 23.5391 4.59961H21.5383ZM26.7037 4.59961C26.3158 6.98836 26.9283 9.00961 28.5208 10.6634C29.5416 11.6842 29.8274 13.0521 29.3783 14.8079H31.4812C31.7466 13.685 31.767 12.7663 31.5833 11.8475C31.3995 10.99 30.7462 9.96919 29.6641 8.74419C28.7045 7.60086 28.3983 6.23294 28.7045 4.59961H26.7037ZM10.207 16.8496C10.207 19.7488 11.0033 22.3621 12.5345 24.6896C14.0272 26.9831 16.1556 28.7922 18.6595 29.8959L10.5337 42.2479C10.3295 42.4929 10.207 42.8809 10.207 43.3913C10.207 44.2284 10.5337 44.8 11.1054 45.1063C11.3504 45.3104 11.7383 45.4329 12.2487 45.4329C13.0858 45.4329 13.6574 45.1063 13.9637 44.5346L15.9849 41.2884H28.9904C29.4191 42.4725 30.1949 43.4934 31.1954 44.2488C32.2162 45.0246 33.4004 45.4329 34.707 45.4329C36.4016 45.4329 37.8308 44.8 39.0558 43.575C40.2604 42.3704 40.832 40.9413 40.832 39.3079C40.832 37.6134 40.2604 36.1842 39.0558 34.9796C37.8308 33.7546 36.4016 33.1829 34.707 33.1829C33.4004 33.1829 32.2162 33.53 31.1954 34.3059C30.1745 35.0613 29.4395 36.0617 28.9904 37.2663H18.6595L22.6816 31.0392C23.0083 31.1413 23.6004 31.1413 24.4987 31.1413C25.397 31.1413 25.9891 31.1413 26.3158 31.0392L28.337 34.2038C29.1741 33.1013 30.297 32.2438 31.5833 31.7129L30.4399 29.8959C32.7266 28.875 34.707 27.0579 36.32 24.5467C37.9533 21.9538 38.7904 19.4425 38.7904 16.8496H10.207ZM34.707 37.2663C35.3195 37.2663 35.7891 37.45 36.177 37.8379C36.5649 38.2259 36.7487 38.7363 36.7487 39.3079C36.7487 39.8592 36.5649 40.3288 36.177 40.7575C35.8095 41.1659 35.2787 41.3496 34.707 41.3496C34.1762 41.3496 33.6862 41.1659 33.2575 40.7575C33.0682 40.5667 32.9185 40.3405 32.8169 40.0918C32.7153 39.843 32.6638 39.5766 32.6654 39.3079C32.6654 38.6954 32.8491 38.2259 33.2575 37.8379C33.6862 37.45 34.1558 37.2663 34.707 37.2663Z" fill="black"/>
</svg>
