<svg width="19" height="18" viewBox="0 0 19 18" fill="none" xmlns="http://www.w3.org/2000/svg">
<path d="M17.51 12.38C16.28 12.38 15.09 12.18 13.98 11.82C13.8061 11.7611 13.6191 11.7523 13.4405 11.7948C13.2618 11.8372 13.0988 11.9291 12.97 12.06L11.4 14.03C8.57 12.68 5.92 10.13 4.51 7.2L6.46 5.54C6.73 5.26 6.81 4.87 6.7 4.52C6.33 3.41 6.14 2.22 6.14 0.99C6.14 0.45 5.69 0 5.15 0H1.69C1.15 0 0.5 0.24 0.5 0.99C0.5 10.28 8.23 18 17.51 18C18.22 18 18.5 17.37 18.5 16.82V13.37C18.5 12.83 18.05 12.38 17.51 12.38Z" fill="white"/>
</svg>
