<svg width="16" height="17" viewBox="0 0 16 17" fill="none" xmlns="http://www.w3.org/2000/svg">
<path d="M2.66536 13.8483C2.2987 13.8483 1.98492 13.7179 1.72403 13.457C1.46314 13.1961 1.33248 12.8821 1.33203 12.515V4.51497C1.33203 4.14831 1.4627 3.83453 1.72403 3.57364C1.98536 3.31275 2.29914 3.18209 2.66536 3.18164H13.332C13.6987 3.18164 14.0127 3.31231 14.274 3.57364C14.5354 3.83497 14.6658 4.14875 14.6654 4.51497V12.515C14.6654 12.8816 14.5349 13.1956 14.274 13.457C14.0131 13.7183 13.6991 13.8488 13.332 13.8483H2.66536ZM7.9987 9.18164L2.66536 5.84831V12.515H13.332V5.84831L7.9987 9.18164ZM7.9987 7.84831L13.332 4.51497H2.66536L7.9987 7.84831ZM2.66536 5.84831V4.51497V12.515V5.84831Z" fill="white"/>
</svg>
