<svg width="16" height="17" viewBox="0 0 16 17" fill="none" xmlns="http://www.w3.org/2000/svg">
<path d="M4.66797 15.1829V9.08294C4.1013 8.92739 3.62641 8.61628 3.2433 8.14961C2.86019 7.68294 2.66841 7.1385 2.66797 6.51628V1.84961H4.0013V6.51628H4.66797V1.84961H6.0013V6.51628H6.66797V1.84961H8.0013V6.51628C8.0013 7.1385 7.80975 7.68294 7.42664 8.14961C7.04352 8.61628 6.56841 8.92739 6.0013 9.08294V15.1829H4.66797ZM11.3346 15.1829V9.84961H9.33464V5.18294C9.33464 4.26072 9.65975 3.47472 10.31 2.82494C10.9602 2.17516 11.7462 1.85005 12.668 1.84961V15.1829H11.3346Z" fill="white"/>
</svg>
