<svg width="33" height="34" viewBox="0 0 33 34" fill="none" xmlns="http://www.w3.org/2000/svg">
<path d="M21.3125 19.75H20.2263L19.8413 19.3788C21.2353 17.7618 22.0015 15.6975 22 13.5625C22 11.7948 21.4758 10.0669 20.4938 8.5971C19.5117 7.12733 18.1159 5.98179 16.4827 5.30533C14.8496 4.62887 13.0526 4.45188 11.3189 4.79674C9.58518 5.14159 7.99267 5.99281 6.74274 7.24274C5.49281 8.49267 4.64159 10.0852 4.29674 11.8189C3.95188 13.5526 4.12887 15.3496 4.80533 16.9827C5.48179 18.6159 6.62733 20.0117 8.0971 20.9938C9.56686 21.9758 11.2948 22.5 13.0625 22.5C15.2763 22.5 17.3113 21.6888 18.8788 20.3413L19.25 20.7263V21.8125L26.125 28.6738L28.1738 26.625L21.3125 19.75ZM13.0625 19.75C9.63875 19.75 6.875 16.9863 6.875 13.5625C6.875 10.1388 9.63875 7.375 13.0625 7.375C16.4863 7.375 19.25 10.1388 19.25 13.5625C19.25 16.9863 16.4863 19.75 13.0625 19.75Z" fill="white"/>
</svg>
