<svg width="39" height="23" viewBox="0 0 39 23" fill="none" xmlns="http://www.w3.org/2000/svg">
<path fill-rule="evenodd" clip-rule="evenodd" d="M17.4954 1.49558C18.0267 0.96441 18.7473 0.666016 19.4986 0.666016C20.2499 0.666016 20.9704 0.96441 21.5017 1.49558L37.5299 17.5237C38.046 18.0581 38.3316 18.7738 38.3251 19.5167C38.3187 20.2596 38.0207 20.9702 37.4954 21.4956C36.9701 22.0209 36.2594 22.3189 35.5165 22.3253C34.7736 22.3318 34.0579 22.0462 33.5236 21.5301L19.4986 7.50508L5.47356 21.5301C4.93919 22.0462 4.22348 22.3318 3.48059 22.3253C2.7377 22.3189 2.02706 22.0209 1.50174 21.4956C0.976416 20.9702 0.678438 20.2596 0.671982 19.5167C0.665527 18.7738 0.95111 18.0581 1.46723 17.5237L17.4954 1.49558Z" fill="white"/>
</svg>
