<svg width="16" height="17" viewBox="0 0 16 17" fill="none" xmlns="http://www.w3.org/2000/svg">
<path d="M4.66797 15.1829C4.3013 15.1829 3.98752 15.0525 3.72664 14.7916C3.46575 14.5307 3.33508 14.2167 3.33464 13.8496C3.33419 13.4825 3.46486 13.1687 3.72664 12.9083C3.98841 12.6478 4.30219 12.5172 4.66797 12.5163C5.03375 12.5154 5.34775 12.6461 5.60997 12.9083C5.87219 13.1705 6.00264 13.4843 6.0013 13.8496C5.99997 14.2149 5.86952 14.5289 5.60997 14.7916C5.35041 15.0543 5.03641 15.1847 4.66797 15.1829ZM11.3346 15.1829C10.968 15.1829 10.6542 15.0525 10.3933 14.7916C10.1324 14.5307 10.0017 14.2167 10.0013 13.8496C10.0009 13.4825 10.1315 13.1687 10.3933 12.9083C10.6551 12.6478 10.9689 12.5172 11.3346 12.5163C11.7004 12.5154 12.0144 12.6461 12.2766 12.9083C12.5389 13.1705 12.6693 13.4843 12.668 13.8496C12.6666 14.2149 12.5362 14.5289 12.2766 14.7916C12.0171 15.0543 11.7031 15.1847 11.3346 15.1829ZM3.46797 3.18294H13.3013C13.5569 3.18294 13.7513 3.29694 13.8846 3.52494C14.018 3.75294 14.0235 3.98339 13.9013 4.21628L11.5346 8.48294C11.4124 8.70516 11.2486 8.87739 11.0433 8.99961C10.838 9.12183 10.6129 9.18294 10.368 9.18294H5.4013L4.66797 10.5163H12.668V11.8496H4.66797C4.16797 11.8496 3.79019 11.6303 3.53464 11.1916C3.27908 10.7529 3.26797 10.3167 3.5013 9.88294L4.4013 8.24961L2.0013 3.18294H0.667969V1.84961H2.83464L3.46797 3.18294Z" fill="white"/>
</svg>
